<?xml version="1.0" encoding="UTF-8"?>
<svg xmlns="http://www.w3.org/2000/svg" xmlns:xlink="http://www.w3.org/1999/xlink" width="24pt" height="24pt" viewBox="0 0 24 24" version="1.1">
<defs>
<filter id="alpha" filterUnits="objectBoundingBox" x="0%" y="0%" width="100%" height="100%">
  <feColorMatrix type="matrix" in="SourceGraphic" values="0 0 0 0 1 0 0 0 0 1 0 0 0 0 1 0 0 0 1 0"/>
</filter>
<mask id="mask0">
  <g filter="url(#alpha)">
<rect x="0" y="0" width="24" height="24" style="fill:rgb(0%,0%,0%);fill-opacity:0.301961;stroke:none;"/>
  </g>
</mask>
<clipPath id="clip1">
  <rect width="24" height="24"/>
</clipPath>
<g id="surface410363" clip-path="url(#clip1)">
<path style=" stroke:none;fill-rule:nonzero;fill:rgb(25.490196%,38.431373%,96.470588%);fill-opacity:1;" d="M 12 1.378906 C 6.132812 1.378906 1.378906 6.132812 1.378906 12 C 1.378906 17.867188 6.132812 22.621094 12 22.621094 C 17.867188 22.621094 22.621094 17.867188 22.621094 12 C 22.621094 6.132812 17.867188 1.378906 12 1.378906 Z M 12 1.378906 "/>
</g>
</defs>
<g id="surface410358">
<use xlink:href="#surface410363" mask="url(#mask0)"/>
<path style=" stroke:none;fill-rule:nonzero;fill:rgb(25.490196%,38.431373%,96.470588%);fill-opacity:1;" d="M 16.71875 13.179688 L 13.179688 13.179688 L 13.179688 16.71875 L 10.820312 16.71875 L 10.820312 13.179688 L 7.28125 13.179688 L 7.28125 10.820312 L 10.820312 10.820312 L 10.820312 7.28125 L 13.179688 7.28125 L 13.179688 10.820312 L 16.71875 10.820312 Z M 16.71875 13.179688 "/>
<path style=" stroke:none;fill-rule:nonzero;fill:rgb(25.490196%,38.431373%,96.470588%);fill-opacity:1;" d="M 12 23.800781 C 5.492188 23.800781 0.199219 18.507812 0.199219 12 C 0.199219 5.492188 5.492188 0.199219 12 0.199219 C 18.507812 0.199219 23.800781 5.492188 23.800781 12 C 23.800781 18.507812 18.507812 23.800781 12 23.800781 Z M 12 2.558594 C 6.796875 2.558594 2.558594 6.796875 2.558594 12 C 2.558594 17.203125 6.796875 21.441406 12 21.441406 C 17.203125 21.441406 21.441406 17.203125 21.441406 12 C 21.441406 6.796875 17.203125 2.558594 12 2.558594 Z M 12 2.558594 "/>
</g>
</svg>
